<svg width="1016" height="823" viewBox="0 0 1016 823" fill="none" xmlns="http://www.w3.org/2000/svg">
<g filter="url(#filter0_d_634_1418)">
<rect x="16" y="134.983" width="184.273" height="114.177" rx="4.42822" fill="white"/>
</g>
<path d="M186.544 164.611C186.544 177.382 176.191 187.735 163.419 187.735C150.648 187.735 140.295 177.382 140.295 164.611C140.295 151.84 150.648 141.486 163.419 141.486C176.191 141.486 186.544 151.84 186.544 164.611ZM146.076 164.611C146.076 174.189 153.841 181.954 163.419 181.954C172.998 181.954 180.763 174.189 180.763 164.611C180.763 155.032 172.998 147.267 163.419 147.267C153.841 147.267 146.076 155.032 146.076 164.611Z" fill="#4C79FF"/>
<rect opacity="0.5" x="39.3445" y="207.243" width="136.579" height="25.2924" rx="4.48235" fill="#4D79FE"/>
<g filter="url(#filter1_d_634_1418)">
<rect x="16" y="262.891" width="184.273" height="80.9358" rx="4.42822" fill="white"/>
</g>
<path d="M42.2843 321.236L41.9496 322.921H41.6269C41.5924 322.921 41.5605 322.913 41.5313 322.897C41.5021 322.882 41.4768 322.86 41.4556 322.834C41.437 322.807 41.4237 322.775 41.4157 322.738C41.4078 322.701 41.4078 322.66 41.4157 322.615L41.6986 321.236H40.7145L40.4316 322.65C40.4157 322.749 40.3772 322.819 40.3161 322.862C40.255 322.901 40.1859 322.921 40.1089 322.921H39.7901L40.1288 321.236H39.5471C39.4727 321.236 39.4183 321.215 39.3837 321.172C39.3519 321.127 39.3439 321.05 39.3598 320.941L39.3917 320.714H40.2045L40.4635 319.415H39.5391L39.5909 319.12C39.6042 319.043 39.6347 318.986 39.6826 318.949C39.733 318.912 39.8087 318.893 39.9097 318.893H40.5392L40.8261 317.467C40.842 317.387 40.8779 317.325 40.9336 317.28C40.9921 317.234 41.0611 317.212 41.1408 317.212H41.4596L41.1249 318.893H42.109L42.4437 317.212H42.7584C42.8355 317.212 42.8952 317.237 42.9377 317.288C42.9829 317.338 42.9988 317.402 42.9856 317.479L42.6947 318.893H43.5394L43.4876 319.192C43.4743 319.269 43.4424 319.326 43.392 319.363C43.3441 319.398 43.2698 319.415 43.1688 319.415H42.619L42.36 320.714H43.0732C43.1502 320.714 43.2047 320.737 43.2366 320.782C43.2711 320.824 43.2804 320.9 43.2645 321.009L43.2286 321.236H42.2843ZM40.7902 320.714H41.7743L42.0333 319.415H41.0492L40.7902 320.714Z" fill="black"/>
<rect x="159.805" y="312.753" width="18.066" height="18.066" rx="4.48235" fill="#777777" fill-opacity="0.2"/>
<g filter="url(#filter2_d_634_1418)">
<rect x="16" y="356.834" width="184.273" height="66.4829" rx="4.42822" fill="white"/>
</g>
<path d="M42.2846 399.281L41.9499 400.966H41.6271C41.5926 400.966 41.5607 400.958 41.5315 400.942C41.5023 400.926 41.4771 400.905 41.4558 400.879C41.4372 400.852 41.4239 400.82 41.416 400.783C41.408 400.746 41.408 400.705 41.416 400.66L41.6989 399.281H40.7147L40.4319 400.695C40.4159 400.794 40.3774 400.864 40.3163 400.907C40.2552 400.946 40.1862 400.966 40.1091 400.966H39.7904L40.129 399.281H39.5473C39.473 399.281 39.4185 399.26 39.384 399.217C39.3521 399.172 39.3441 399.095 39.3601 398.986L39.3919 398.759H40.2047L40.4637 397.46H39.5394L39.5912 397.165C39.6044 397.088 39.635 397.031 39.6828 396.994C39.7333 396.957 39.809 396.938 39.9099 396.938H40.5394L40.8263 395.512C40.8422 395.432 40.8781 395.37 40.9339 395.325C40.9923 395.279 41.0614 395.257 41.1411 395.257H41.4598L41.1251 396.938H42.1092L42.4439 395.257H42.7587C42.8357 395.257 42.8955 395.282 42.938 395.332C42.9831 395.383 42.9991 395.447 42.9858 395.524L42.6949 396.938H43.5396L43.4878 397.237C43.4745 397.314 43.4427 397.371 43.3922 397.408C43.3444 397.443 43.27 397.46 43.1691 397.46H42.6192L42.3603 398.759H43.0735C43.1505 398.759 43.2049 398.782 43.2368 398.827C43.2713 398.869 43.2806 398.945 43.2647 399.054L43.2288 399.281H42.2846ZM40.7904 398.759H41.7746L42.0335 397.46H41.0494L40.7904 398.759Z" fill="black"/>
<rect x="159.805" y="392.244" width="18.066" height="18.066" rx="4.48235" fill="#777777" fill-opacity="0.2"/>
<rect opacity="0.05" x="39.3459" y="371.77" width="97.8271" height="10.005" rx="1.53231" fill="black"/>
<rect x="52.6852" y="395.115" width="37.7968" height="10.005" rx="1.53231" fill="#FF626D"/>
<rect opacity="0.05" x="39.3459" y="293.953" width="74.482" height="10.005" rx="1.53231" fill="black"/>
<rect opacity="0.05" x="39.3459" y="277.278" width="133.401" height="10.005" rx="1.53231" fill="black"/>
<rect opacity="0.05" x="31.564" y="144.988" width="98.9388" height="14.4517" rx="1.53231" fill="black"/>
<rect opacity="0.05" x="31.564" y="164.998" width="48.9135" height="10.005" rx="1.53231" fill="#4C4C4C"/>
<rect opacity="0.5" x="82.7008" y="215.023" width="48.9135" height="10.005" rx="1.53231" fill="white"/>
<rect x="52.6852" y="317.297" width="37.7968" height="10.005" rx="1.53231" fill="#FF626D"/>
<g filter="url(#filter3_d_634_1418)">
<rect x="226.391" y="150.943" width="184.273" height="114.177" rx="4.42822" fill="white"/>
</g>
<path d="M396.935 180.571C396.935 193.342 386.581 203.695 373.81 203.695C361.039 203.695 350.686 193.342 350.686 180.571C350.686 167.799 361.039 157.446 373.81 157.446C386.581 157.446 396.935 167.799 396.935 180.571ZM356.467 180.571C356.467 190.149 364.232 197.914 373.81 197.914C383.389 197.914 391.154 190.149 391.154 180.571C391.154 170.992 383.389 163.227 373.81 163.227C364.232 163.227 356.467 170.992 356.467 180.571Z" fill="#E4E4E4"/>
<rect opacity="0.5" x="249.735" y="223.202" width="136.579" height="25.2924" rx="4.48235" fill="#FF4C58"/>
<rect opacity="0.05" x="241.955" y="160.949" width="98.9388" height="14.4517" rx="1.53231" fill="black"/>
<rect opacity="0.05" x="241.955" y="180.959" width="48.9135" height="10.005" rx="1.53231" fill="#4C4C4C"/>
<rect opacity="0.5" x="293.092" y="230.984" width="48.9135" height="10.005" rx="1.53231" fill="white"/>
<g filter="url(#filter4_d_634_1418)">
<rect x="436.782" y="120.474" width="184.273" height="114.177" rx="4.42822" fill="white"/>
</g>
<path d="M607.326 150.101C607.326 162.872 596.972 173.226 584.201 173.226C571.43 173.226 561.077 162.872 561.077 150.101C561.077 137.33 571.43 126.977 584.201 126.977C596.972 126.977 607.326 137.33 607.326 150.101ZM566.858 150.101C566.858 159.68 574.623 167.444 584.201 167.444C593.78 167.444 601.545 159.68 601.545 150.101C601.545 140.523 593.78 132.758 584.201 132.758C574.623 132.758 566.858 140.523 566.858 150.101Z" fill="#E4E4E4"/>
<rect opacity="0.5" x="460.126" y="192.732" width="136.579" height="25.2924" rx="4.48235" fill="#FFA34C"/>
<g filter="url(#filter5_d_634_1418)">
<rect x="436.782" y="248.381" width="184.273" height="80.9358" rx="4.42822" fill="white"/>
</g>
<path d="M463.066 306.726L462.731 308.411H462.409C462.374 308.411 462.342 308.403 462.313 308.387C462.284 308.371 462.259 308.35 462.237 308.323C462.219 308.297 462.206 308.265 462.198 308.228C462.19 308.191 462.19 308.149 462.198 308.104L462.48 306.726H461.496L461.213 308.14C461.198 308.238 461.159 308.309 461.098 308.351C461.037 308.391 460.968 308.411 460.891 308.411H460.572L460.911 306.726H460.329C460.255 306.726 460.2 306.705 460.166 306.662C460.134 306.617 460.126 306.54 460.142 306.431L460.174 306.204H460.986L461.245 304.905H460.321L460.373 304.61C460.386 304.533 460.417 304.476 460.464 304.439C460.515 304.402 460.591 304.383 460.692 304.383H461.321L461.608 302.957C461.624 302.877 461.66 302.815 461.715 302.769C461.774 302.724 461.843 302.702 461.923 302.702H462.241L461.907 304.383H462.891L463.226 302.702H463.54C463.617 302.702 463.677 302.727 463.72 302.777C463.765 302.828 463.781 302.892 463.767 302.969L463.477 304.383H464.321L464.269 304.682C464.256 304.759 464.224 304.816 464.174 304.853C464.126 304.888 464.052 304.905 463.951 304.905H463.401L463.142 306.204H463.855C463.932 306.204 463.987 306.226 464.018 306.272C464.053 306.314 464.062 306.39 464.046 306.499L464.01 306.726H463.066ZM461.572 306.204H462.556L462.815 304.905H461.831L461.572 306.204Z" fill="black"/>
<rect x="580.587" y="298.243" width="18.066" height="18.066" rx="4.48235" fill="#777777" fill-opacity="0.2"/>
<g filter="url(#filter6_d_634_1418)">
<rect x="436.782" y="342.325" width="184.273" height="66.4829" rx="4.42822" fill="white"/>
</g>
<path d="M463.066 384.771L462.731 386.457H462.409C462.374 386.457 462.342 386.449 462.313 386.433C462.284 386.417 462.259 386.395 462.237 386.369C462.219 386.342 462.205 386.31 462.197 386.273C462.19 386.236 462.19 386.195 462.197 386.15L462.48 384.771H461.496L461.213 386.186C461.197 386.284 461.159 386.354 461.098 386.397C461.037 386.437 460.968 386.457 460.891 386.457H460.572L460.911 384.771H460.329C460.254 384.771 460.2 384.75 460.165 384.707C460.134 384.662 460.126 384.585 460.142 384.476L460.173 384.249H460.986L461.245 382.95H460.321L460.373 382.656C460.386 382.578 460.416 382.521 460.464 382.484C460.515 382.447 460.59 382.428 460.691 382.428H461.321L461.608 381.002C461.624 380.922 461.66 380.86 461.715 380.815C461.774 380.77 461.843 380.747 461.923 380.747H462.241L461.907 382.428H462.891L463.225 380.747H463.54C463.617 380.747 463.677 380.772 463.719 380.823C463.765 380.873 463.781 380.937 463.767 381.014L463.476 382.428H464.321L464.269 382.727C464.256 382.804 464.224 382.861 464.174 382.899C464.126 382.933 464.052 382.95 463.951 382.95H463.401L463.142 384.249H463.855C463.932 384.249 463.986 384.272 464.018 384.317C464.053 384.359 464.062 384.435 464.046 384.544L464.01 384.771H463.066ZM461.572 384.249H462.556L462.815 382.95H461.831L461.572 384.249Z" fill="black"/>
<rect x="580.587" y="377.734" width="18.066" height="18.066" rx="4.48235" fill="#777777" fill-opacity="0.2"/>
<rect opacity="0.05" x="460.128" y="357.259" width="97.8271" height="10.005" rx="1.53231" fill="black"/>
<rect x="473.467" y="380.604" width="37.7968" height="10.005" rx="1.53231" fill="#FF626D"/>
<rect opacity="0.05" x="460.128" y="279.442" width="74.482" height="10.005" rx="1.53231" fill="black"/>
<rect opacity="0.05" x="460.128" y="262.768" width="133.401" height="10.005" rx="1.53231" fill="black"/>
<rect opacity="0.05" x="452.346" y="130.479" width="98.9388" height="14.4517" rx="1.53231" fill="black"/>
<rect opacity="0.05" x="452.346" y="150.944" width="48.9135" height="10.005" rx="1.53231" fill="#4C4C4C"/>
<rect opacity="0.5" x="503.483" y="200.513" width="48.9135" height="10.005" rx="1.53231" fill="white"/>
<rect x="473.467" y="302.787" width="37.7968" height="10.005" rx="1.53231" fill="#FF626D"/>
<g filter="url(#filter7_d_634_1418)">
<rect x="637.016" y="142.238" width="240.517" height="149.026" rx="5.77978" fill="white"/>
</g>
<path d="M859.612 180.909C859.612 197.578 846.099 211.092 829.43 211.092C812.76 211.092 799.247 197.578 799.247 180.909C799.247 164.24 812.76 150.727 829.43 150.727C846.099 150.727 859.612 164.24 859.612 180.909ZM806.793 180.909C806.793 193.411 816.928 203.546 829.43 203.546C841.932 203.546 852.067 193.411 852.067 180.909C852.067 168.407 841.932 158.272 829.43 158.272C816.928 158.272 806.793 168.407 806.793 180.909Z" fill="#E4E4E4"/>
<rect opacity="0.5" x="667.486" y="236.551" width="178.265" height="33.0121" rx="5.85044" fill="#10DA46"/>
<g filter="url(#filter8_d_634_1418)">
<rect x="637.016" y="309.185" width="240.517" height="105.639" rx="5.77978" fill="white"/>
</g>
<path d="M671.323 384.895L670.886 387.095H670.465C670.42 387.095 670.378 387.084 670.34 387.064C670.302 387.043 670.269 387.015 670.241 386.98C670.217 386.946 670.199 386.904 670.189 386.856C670.179 386.807 670.179 386.753 670.189 386.694L670.558 384.895H669.274L668.904 386.741C668.884 386.869 668.833 386.961 668.754 387.017C668.674 387.069 668.584 387.095 668.483 387.095H668.067L668.509 384.895H667.75C667.653 384.895 667.582 384.867 667.537 384.812C667.495 384.753 667.485 384.652 667.506 384.51L667.547 384.214H668.608L668.946 382.518H667.74L667.807 382.134C667.825 382.033 667.864 381.958 667.927 381.91C667.993 381.861 668.091 381.837 668.223 381.837H669.045L669.419 379.975C669.44 379.871 669.487 379.79 669.56 379.731C669.636 379.672 669.726 379.643 669.83 379.643H670.246L669.809 381.837H671.094L671.531 379.643H671.941C672.042 379.643 672.12 379.676 672.176 379.741C672.234 379.807 672.255 379.89 672.238 379.991L671.858 381.837H672.961L672.893 382.227C672.876 382.328 672.834 382.402 672.768 382.451C672.706 382.496 672.609 382.518 672.477 382.518H671.759L671.421 384.214H672.352C672.453 384.214 672.524 384.243 672.566 384.302C672.611 384.358 672.623 384.456 672.602 384.599L672.555 384.895H671.323ZM669.372 384.214H670.657L670.995 382.518H669.711L669.372 384.214Z" fill="black"/>
<rect x="824.713" y="374.265" width="23.5801" height="23.5801" rx="5.85044" fill="#777777" fill-opacity="0.2"/>
<g filter="url(#filter9_d_634_1418)">
<rect x="637.016" y="431.801" width="240.517" height="86.7746" rx="5.77978" fill="white"/>
</g>
<path d="M671.323 486.762L670.886 488.961H670.465C670.42 488.961 670.378 488.951 670.34 488.93C670.302 488.909 670.269 488.882 670.241 488.847C670.217 488.812 670.199 488.771 670.189 488.722C670.179 488.674 670.179 488.62 670.189 488.561L670.558 486.762H669.274L668.905 488.608C668.884 488.736 668.834 488.828 668.754 488.883C668.674 488.935 668.584 488.961 668.483 488.961H668.067L668.509 486.762H667.75C667.653 486.762 667.582 486.734 667.537 486.678C667.495 486.62 667.485 486.519 667.506 486.377L667.547 486.08H668.608L668.946 484.385H667.74L667.807 484C667.825 483.9 667.865 483.825 667.927 483.777C667.993 483.728 668.092 483.704 668.223 483.704H669.045L669.419 481.842C669.44 481.738 669.487 481.657 669.56 481.598C669.636 481.539 669.726 481.509 669.83 481.509H670.246L669.809 483.704H671.094L671.531 481.509H671.942C672.042 481.509 672.12 481.542 672.176 481.608C672.235 481.674 672.255 481.757 672.238 481.858L671.858 483.704H672.961L672.893 484.094C672.876 484.194 672.834 484.269 672.768 484.317C672.706 484.363 672.609 484.385 672.477 484.385H671.76L671.422 486.08H672.352C672.453 486.08 672.524 486.11 672.566 486.169C672.611 486.224 672.623 486.323 672.602 486.465L672.555 486.762H671.323ZM669.373 486.08H670.657L670.995 484.385H669.711L669.373 486.08Z" fill="black"/>
<rect x="824.713" y="478.018" width="23.5801" height="23.5801" rx="5.85044" fill="#777777" fill-opacity="0.2"/>
<rect opacity="0.05" x="667.486" y="451.295" width="127.686" height="13.0587" rx="2" fill="black"/>
<rect x="684.898" y="481.765" width="49.333" height="13.0587" rx="2" fill="#FF626D"/>
<rect opacity="0.05" x="667.486" y="349.727" width="97.2151" height="13.0587" rx="2" fill="black"/>
<rect opacity="0.05" x="667.486" y="327.962" width="174.117" height="13.0587" rx="2" fill="black"/>
<rect opacity="0.05" x="657.33" y="155.296" width="129.136" height="18.8626" rx="2" fill="black"/>
<rect opacity="0.05" x="657.33" y="181.414" width="63.8428" height="13.0587" rx="2" fill="#4C4C4C"/>
<rect opacity="0.5" x="724.074" y="246.708" width="63.8428" height="13.0587" rx="2" fill="white"/>
<rect x="684.898" y="380.197" width="49.333" height="13.0587" rx="2" fill="#FF626D"/>
<g opacity="0.2">
<g filter="url(#filter10_f_634_1418)">
<path d="M857.789 326.198C857.789 322.364 860.897 319.256 864.731 319.256H956.977C960.81 319.256 963.918 322.364 963.918 326.198V456.407C963.918 460.241 960.81 463.349 956.977 463.349H864.731C860.897 463.349 857.789 460.241 857.789 456.407V326.198Z" fill="#4D79FF"/>
</g>
<g filter="url(#filter11_f_634_1418)">
<path d="M751.643 452.43C751.643 448.596 754.751 445.488 758.584 445.488H888.393C892.227 445.488 895.335 448.596 895.335 452.43V630.058C895.335 633.892 892.227 637 888.393 637H758.584C754.751 637 751.643 633.892 751.643 630.058V452.43Z" fill="#FFA34C"/>
</g>
</g>
<g filter="url(#filter12_d_634_1418)">
<path d="M783.639 434.157C783.639 430.323 786.747 427.215 790.581 427.215H965.324C969.158 427.215 972.266 430.323 972.266 434.157V620.507C972.266 624.341 969.158 627.449 965.324 627.449H790.581C786.747 627.449 783.639 624.341 783.639 620.507V434.157Z" fill="white"/>
</g>
<path d="M935.334 607.036L935.334 598.307C935.334 596.082 937.138 594.278 939.363 594.278C941.588 594.278 943.392 596.082 943.392 598.307L943.392 607.036L935.334 607.036Z" fill="#FF8F6B"/>
<path opacity="0.2" d="M907.802 607.036L907.802 455.952C907.802 453.727 909.606 451.923 911.831 451.923C914.056 451.923 915.86 453.727 915.86 455.952L915.86 607.036L907.802 607.036Z" fill="#FF8F6B"/>
<path opacity="0.2" d="M876.914 607.036L876.914 515.043C876.914 512.818 878.718 511.014 880.943 511.014C883.168 511.014 884.972 512.818 884.972 515.043L884.972 607.036L876.914 607.036Z" fill="#5B93FF"/>
<path d="M846.697 607.036L846.697 553.317C846.697 551.092 848.501 549.288 850.726 549.288C852.951 549.288 854.755 551.092 854.755 553.317L854.755 607.036L846.697 607.036Z" fill="#5B93FF"/>
<path opacity="0.2" d="M817.152 607.036L817.152 498.6C817.152 496.556 818.809 494.898 820.854 494.898L821.507 494.898C823.552 494.898 825.21 496.556 825.21 498.6L825.21 607.036L817.152 607.036Z" fill="#FF8F6B"/>
<path opacity="0.8" d="M160.117 24.2258C160.117 19.6828 163.8 16 168.343 16H315.38C319.923 16 323.606 19.6828 323.606 24.2258V162.214C323.606 166.757 319.923 170.44 315.38 170.44H168.343C163.8 170.44 160.117 166.757 160.117 162.214V24.2258Z" fill="white"/>
<g filter="url(#filter13_d_634_1418)">
<path d="M159.646 24.2258C159.646 19.6828 163.329 16 167.872 16H314.909C319.452 16 323.135 19.6828 323.135 24.2258V162.211C323.135 166.754 319.452 170.437 314.909 170.437H167.872C163.329 170.437 159.646 166.754 159.646 162.211V24.2258Z" fill="white"/>
</g>
<path opacity="0.2" d="M293.988 93.2203C293.988 122.139 270.545 145.582 241.627 145.582C212.708 145.582 189.265 122.139 189.265 93.2203C189.265 64.3019 212.708 40.8589 241.627 40.8589C270.545 40.8589 293.988 64.3019 293.988 93.2203ZM200.776 93.2203C200.776 115.782 219.065 134.071 241.627 134.071C264.188 134.071 282.478 115.782 282.478 93.2203C282.478 70.6589 264.188 52.3693 241.627 52.3693C219.065 52.3693 200.776 70.6589 200.776 93.2203Z" fill="#FFD66B"/>
<path d="M222.417 135.63C221.094 138.55 217.634 139.872 214.878 138.235C205.586 132.713 198.185 124.422 193.763 114.455C189.342 104.488 188.161 93.4371 190.303 82.8427C190.938 79.7008 194.241 78.0225 197.293 79.0015C200.345 79.9805 201.982 83.248 201.446 86.4084C200.114 94.2647 201.108 102.386 204.374 109.747C207.64 117.109 212.994 123.296 219.712 127.581C222.415 129.304 223.739 132.71 222.417 135.63Z" fill="#FF8F6B"/>
<path d="M241.626 46.723C241.626 43.4843 244.259 40.825 247.478 41.1869C253.734 41.8905 259.828 43.7185 265.462 46.5988C272.841 50.3715 279.219 55.8419 284.072 62.5602C288.925 69.2785 292.114 77.0527 293.376 85.2436C294.639 93.4345 293.939 101.808 291.334 109.676C288.73 117.544 284.295 124.681 278.394 130.5C272.494 136.32 265.296 140.656 257.393 143.151C249.49 145.647 241.108 146.231 232.935 144.855C226.695 143.805 220.714 141.636 215.274 138.467C212.475 136.838 211.949 133.132 213.881 130.533C215.814 127.934 219.472 127.437 222.322 128.975C226.232 131.086 230.474 132.548 234.882 133.29C241.224 134.357 247.729 133.904 253.861 131.968C259.994 130.031 265.58 126.666 270.159 122.15C274.738 117.634 278.179 112.095 280.2 105.99C282.222 99.8845 282.765 93.3865 281.785 87.0302C280.805 80.674 278.331 74.6411 274.565 69.4276C270.799 64.2142 265.849 59.969 260.123 57.0414C256.143 55.0066 251.867 53.6486 247.47 53.0095C244.265 52.5437 241.626 49.9617 241.626 46.723Z" fill="#5B93FF"/>
<defs>
<filter id="filter0_d_634_1418" x="0.676871" y="122.725" width="214.92" height="144.824" filterUnits="userSpaceOnUse" color-interpolation-filters="sRGB">
<feFlood flood-opacity="0" result="BackgroundImageFix"/>
<feColorMatrix in="SourceAlpha" type="matrix" values="0 0 0 0 0 0 0 0 0 0 0 0 0 0 0 0 0 0 127 0" result="hardAlpha"/>
<feOffset dy="3.06463"/>
<feGaussianBlur stdDeviation="7.66156"/>
<feComposite in2="hardAlpha" operator="out"/>
<feColorMatrix type="matrix" values="0 0 0 0 0.541667 0 0 0 0 0.512326 0 0 0 0 0.512326 0 0 0 0.25 0"/>
<feBlend mode="normal" in2="BackgroundImageFix" result="effect1_dropShadow_634_1418"/>
<feBlend mode="normal" in="SourceGraphic" in2="effect1_dropShadow_634_1418" result="shape"/>
</filter>
<filter id="filter1_d_634_1418" x="0.676871" y="250.633" width="214.92" height="111.582" filterUnits="userSpaceOnUse" color-interpolation-filters="sRGB">
<feFlood flood-opacity="0" result="BackgroundImageFix"/>
<feColorMatrix in="SourceAlpha" type="matrix" values="0 0 0 0 0 0 0 0 0 0 0 0 0 0 0 0 0 0 127 0" result="hardAlpha"/>
<feOffset dy="3.06463"/>
<feGaussianBlur stdDeviation="7.66156"/>
<feComposite in2="hardAlpha" operator="out"/>
<feColorMatrix type="matrix" values="0 0 0 0 0.541667 0 0 0 0 0.512326 0 0 0 0 0.512326 0 0 0 0.25 0"/>
<feBlend mode="normal" in2="BackgroundImageFix" result="effect1_dropShadow_634_1418"/>
<feBlend mode="normal" in="SourceGraphic" in2="effect1_dropShadow_634_1418" result="shape"/>
</filter>
<filter id="filter2_d_634_1418" x="0.676871" y="344.576" width="214.92" height="97.1292" filterUnits="userSpaceOnUse" color-interpolation-filters="sRGB">
<feFlood flood-opacity="0" result="BackgroundImageFix"/>
<feColorMatrix in="SourceAlpha" type="matrix" values="0 0 0 0 0 0 0 0 0 0 0 0 0 0 0 0 0 0 127 0" result="hardAlpha"/>
<feOffset dy="3.06463"/>
<feGaussianBlur stdDeviation="7.66156"/>
<feComposite in2="hardAlpha" operator="out"/>
<feColorMatrix type="matrix" values="0 0 0 0 0.541667 0 0 0 0 0.512326 0 0 0 0 0.512326 0 0 0 0.25 0"/>
<feBlend mode="normal" in2="BackgroundImageFix" result="effect1_dropShadow_634_1418"/>
<feBlend mode="normal" in="SourceGraphic" in2="effect1_dropShadow_634_1418" result="shape"/>
</filter>
<filter id="filter3_d_634_1418" x="211.068" y="138.685" width="214.92" height="144.824" filterUnits="userSpaceOnUse" color-interpolation-filters="sRGB">
<feFlood flood-opacity="0" result="BackgroundImageFix"/>
<feColorMatrix in="SourceAlpha" type="matrix" values="0 0 0 0 0 0 0 0 0 0 0 0 0 0 0 0 0 0 127 0" result="hardAlpha"/>
<feOffset dy="3.06463"/>
<feGaussianBlur stdDeviation="7.66156"/>
<feComposite in2="hardAlpha" operator="out"/>
<feColorMatrix type="matrix" values="0 0 0 0 0.541667 0 0 0 0 0.512326 0 0 0 0 0.512326 0 0 0 0.25 0"/>
<feBlend mode="normal" in2="BackgroundImageFix" result="effect1_dropShadow_634_1418"/>
<feBlend mode="normal" in="SourceGraphic" in2="effect1_dropShadow_634_1418" result="shape"/>
</filter>
<filter id="filter4_d_634_1418" x="421.459" y="108.215" width="214.92" height="144.824" filterUnits="userSpaceOnUse" color-interpolation-filters="sRGB">
<feFlood flood-opacity="0" result="BackgroundImageFix"/>
<feColorMatrix in="SourceAlpha" type="matrix" values="0 0 0 0 0 0 0 0 0 0 0 0 0 0 0 0 0 0 127 0" result="hardAlpha"/>
<feOffset dy="3.06463"/>
<feGaussianBlur stdDeviation="7.66156"/>
<feComposite in2="hardAlpha" operator="out"/>
<feColorMatrix type="matrix" values="0 0 0 0 0.541667 0 0 0 0 0.512326 0 0 0 0 0.512326 0 0 0 0.25 0"/>
<feBlend mode="normal" in2="BackgroundImageFix" result="effect1_dropShadow_634_1418"/>
<feBlend mode="normal" in="SourceGraphic" in2="effect1_dropShadow_634_1418" result="shape"/>
</filter>
<filter id="filter5_d_634_1418" x="421.459" y="236.122" width="214.92" height="111.582" filterUnits="userSpaceOnUse" color-interpolation-filters="sRGB">
<feFlood flood-opacity="0" result="BackgroundImageFix"/>
<feColorMatrix in="SourceAlpha" type="matrix" values="0 0 0 0 0 0 0 0 0 0 0 0 0 0 0 0 0 0 127 0" result="hardAlpha"/>
<feOffset dy="3.06463"/>
<feGaussianBlur stdDeviation="7.66156"/>
<feComposite in2="hardAlpha" operator="out"/>
<feColorMatrix type="matrix" values="0 0 0 0 0.541667 0 0 0 0 0.512326 0 0 0 0 0.512326 0 0 0 0.25 0"/>
<feBlend mode="normal" in2="BackgroundImageFix" result="effect1_dropShadow_634_1418"/>
<feBlend mode="normal" in="SourceGraphic" in2="effect1_dropShadow_634_1418" result="shape"/>
</filter>
<filter id="filter6_d_634_1418" x="421.459" y="330.066" width="214.92" height="97.1292" filterUnits="userSpaceOnUse" color-interpolation-filters="sRGB">
<feFlood flood-opacity="0" result="BackgroundImageFix"/>
<feColorMatrix in="SourceAlpha" type="matrix" values="0 0 0 0 0 0 0 0 0 0 0 0 0 0 0 0 0 0 127 0" result="hardAlpha"/>
<feOffset dy="3.06463"/>
<feGaussianBlur stdDeviation="7.66156"/>
<feComposite in2="hardAlpha" operator="out"/>
<feColorMatrix type="matrix" values="0 0 0 0 0.541667 0 0 0 0 0.512326 0 0 0 0 0.512326 0 0 0 0.25 0"/>
<feBlend mode="normal" in2="BackgroundImageFix" result="effect1_dropShadow_634_1418"/>
<feBlend mode="normal" in="SourceGraphic" in2="effect1_dropShadow_634_1418" result="shape"/>
</filter>
<filter id="filter7_d_634_1418" x="617.016" y="126.238" width="280.517" height="189.026" filterUnits="userSpaceOnUse" color-interpolation-filters="sRGB">
<feFlood flood-opacity="0" result="BackgroundImageFix"/>
<feColorMatrix in="SourceAlpha" type="matrix" values="0 0 0 0 0 0 0 0 0 0 0 0 0 0 0 0 0 0 127 0" result="hardAlpha"/>
<feOffset dy="4"/>
<feGaussianBlur stdDeviation="10"/>
<feComposite in2="hardAlpha" operator="out"/>
<feColorMatrix type="matrix" values="0 0 0 0 0.541667 0 0 0 0 0.512326 0 0 0 0 0.512326 0 0 0 0.25 0"/>
<feBlend mode="normal" in2="BackgroundImageFix" result="effect1_dropShadow_634_1418"/>
<feBlend mode="normal" in="SourceGraphic" in2="effect1_dropShadow_634_1418" result="shape"/>
</filter>
<filter id="filter8_d_634_1418" x="617.016" y="293.185" width="280.517" height="145.639" filterUnits="userSpaceOnUse" color-interpolation-filters="sRGB">
<feFlood flood-opacity="0" result="BackgroundImageFix"/>
<feColorMatrix in="SourceAlpha" type="matrix" values="0 0 0 0 0 0 0 0 0 0 0 0 0 0 0 0 0 0 127 0" result="hardAlpha"/>
<feOffset dy="4"/>
<feGaussianBlur stdDeviation="10"/>
<feComposite in2="hardAlpha" operator="out"/>
<feColorMatrix type="matrix" values="0 0 0 0 0.541667 0 0 0 0 0.512326 0 0 0 0 0.512326 0 0 0 0.25 0"/>
<feBlend mode="normal" in2="BackgroundImageFix" result="effect1_dropShadow_634_1418"/>
<feBlend mode="normal" in="SourceGraphic" in2="effect1_dropShadow_634_1418" result="shape"/>
</filter>
<filter id="filter9_d_634_1418" x="617.016" y="415.801" width="280.517" height="126.774" filterUnits="userSpaceOnUse" color-interpolation-filters="sRGB">
<feFlood flood-opacity="0" result="BackgroundImageFix"/>
<feColorMatrix in="SourceAlpha" type="matrix" values="0 0 0 0 0 0 0 0 0 0 0 0 0 0 0 0 0 0 127 0" result="hardAlpha"/>
<feOffset dy="4"/>
<feGaussianBlur stdDeviation="10"/>
<feComposite in2="hardAlpha" operator="out"/>
<feColorMatrix type="matrix" values="0 0 0 0 0.541667 0 0 0 0 0.512326 0 0 0 0 0.512326 0 0 0 0.25 0"/>
<feBlend mode="normal" in2="BackgroundImageFix" result="effect1_dropShadow_634_1418"/>
<feBlend mode="normal" in="SourceGraphic" in2="effect1_dropShadow_634_1418" result="shape"/>
</filter>
<filter id="filter10_f_634_1418" x="672.676" y="134.143" width="476.356" height="514.32" filterUnits="userSpaceOnUse" color-interpolation-filters="sRGB">
<feFlood flood-opacity="0" result="BackgroundImageFix"/>
<feBlend mode="normal" in="SourceGraphic" in2="BackgroundImageFix" result="shape"/>
<feGaussianBlur stdDeviation="92.5566" result="effect1_foregroundBlur_634_1418"/>
</filter>
<filter id="filter11_f_634_1418" x="566.53" y="260.375" width="513.918" height="561.738" filterUnits="userSpaceOnUse" color-interpolation-filters="sRGB">
<feFlood flood-opacity="0" result="BackgroundImageFix"/>
<feBlend mode="normal" in="SourceGraphic" in2="BackgroundImageFix" result="shape"/>
<feGaussianBlur stdDeviation="92.5566" result="effect1_foregroundBlur_634_1418"/>
</filter>
<filter id="filter12_d_634_1418" x="763.639" y="411.215" width="228.626" height="240.234" filterUnits="userSpaceOnUse" color-interpolation-filters="sRGB">
<feFlood flood-opacity="0" result="BackgroundImageFix"/>
<feColorMatrix in="SourceAlpha" type="matrix" values="0 0 0 0 0 0 0 0 0 0 0 0 0 0 0 0 0 0 127 0" result="hardAlpha"/>
<feOffset dy="4"/>
<feGaussianBlur stdDeviation="10"/>
<feComposite in2="hardAlpha" operator="out"/>
<feColorMatrix type="matrix" values="0 0 0 0 0 0 0 0 0 0 0 0 0 0 0 0 0 0 0.08 0"/>
<feBlend mode="normal" in2="BackgroundImageFix" result="effect1_dropShadow_634_1418"/>
<feBlend mode="normal" in="SourceGraphic" in2="effect1_dropShadow_634_1418" result="shape"/>
</filter>
<filter id="filter13_d_634_1418" x="139.646" y="0" width="203.489" height="194.437" filterUnits="userSpaceOnUse" color-interpolation-filters="sRGB">
<feFlood flood-opacity="0" result="BackgroundImageFix"/>
<feColorMatrix in="SourceAlpha" type="matrix" values="0 0 0 0 0 0 0 0 0 0 0 0 0 0 0 0 0 0 127 0" result="hardAlpha"/>
<feOffset dy="4"/>
<feGaussianBlur stdDeviation="10"/>
<feComposite in2="hardAlpha" operator="out"/>
<feColorMatrix type="matrix" values="0 0 0 0 0 0 0 0 0 0 0 0 0 0 0 0 0 0 0.08 0"/>
<feBlend mode="normal" in2="BackgroundImageFix" result="effect1_dropShadow_634_1418"/>
<feBlend mode="normal" in="SourceGraphic" in2="effect1_dropShadow_634_1418" result="shape"/>
</filter>
</defs>
</svg>
