<svg width="974" height="518" viewBox="0 0 974 518" fill="none" xmlns="http://www.w3.org/2000/svg">
<g filter="url(#filter0_d_634_1625)">
<rect x="22" y="72.7134" width="197.577" height="122.42" rx="6.24598" fill="#F9F9F9"/>
</g>
<path d="M204.855 104.481C204.855 118.174 193.755 129.275 180.062 129.275C166.368 129.275 155.268 118.174 155.268 104.481C155.268 90.7876 166.368 79.687 180.062 79.687C193.755 79.687 204.855 90.7876 204.855 104.481ZM161.466 104.481C161.466 114.751 169.792 123.076 180.062 123.076C190.332 123.076 198.657 114.751 198.657 104.481C198.657 94.211 190.332 85.8855 180.062 85.8855C169.792 85.8855 161.466 94.211 161.466 104.481Z" fill="#4C79FF"/>
<rect opacity="0.5" x="47.0299" y="150.189" width="146.439" height="27.1184" rx="6.32234" fill="#4D79FE"/>
<g filter="url(#filter1_d_634_1625)">
<rect x="22" y="209.855" width="197.577" height="86.7788" rx="6.24598" fill="#F9F9F9"/>
</g>
<path d="M51.2516 274.265L50.7795 276.642H50.3243C50.2756 276.642 50.2306 276.631 50.1894 276.608C50.1482 276.586 50.1126 276.556 50.0827 276.518C50.0564 276.481 50.0377 276.436 50.0265 276.384C50.0152 276.331 50.0152 276.273 50.0265 276.209L50.4255 274.265H49.0374L48.6384 276.26C48.6159 276.399 48.5616 276.498 48.4754 276.558C48.3892 276.614 48.2918 276.642 48.1831 276.642H47.7336L48.2112 274.265H47.3907C47.2858 274.265 47.209 274.235 47.1603 274.175C47.1154 274.111 47.1041 274.003 47.1266 273.849L47.1716 273.529H48.318L48.6833 271.697H47.3795L47.4526 271.281C47.4713 271.172 47.5144 271.092 47.5818 271.039C47.653 270.987 47.7598 270.96 47.9022 270.96H48.7901L49.1947 268.949C49.2172 268.836 49.2678 268.748 49.3465 268.684C49.4289 268.621 49.5263 268.589 49.6387 268.589H50.0883L49.6162 270.96H51.0043L51.4764 268.589H51.9204C52.029 268.589 52.1133 268.624 52.1732 268.696C52.2369 268.767 52.2594 268.857 52.2407 268.965L51.8304 270.96H53.0218L52.9488 271.382C52.9301 271.491 52.8851 271.571 52.8139 271.624C52.7465 271.672 52.6416 271.697 52.4992 271.697H51.7237L51.3584 273.529H52.3643C52.473 273.529 52.5498 273.561 52.5947 273.624C52.6434 273.684 52.6566 273.791 52.6341 273.945L52.5835 274.265H51.2516ZM49.1441 273.529H50.5322L50.8975 271.697H49.5094L49.1441 273.529Z" fill="black"/>
<rect x="176.187" y="263.317" width="19.3703" height="19.3703" rx="6.32234" fill="#777777" fill-opacity="0.2"/>
<g filter="url(#filter2_d_634_1625)">
<rect x="22" y="310.58" width="197.577" height="71.2826" rx="6.24598" fill="#F9F9F9"/>
</g>
<path d="M51.2495 357.943L50.7774 360.32H50.3222C50.2735 360.32 50.2286 360.309 50.1874 360.287C50.1461 360.264 50.1106 360.234 50.0806 360.197C50.0544 360.159 50.0356 360.114 50.0244 360.062C50.0131 360.009 50.0131 359.951 50.0244 359.888L50.4234 357.943H49.0353L48.6363 359.938C48.6138 360.077 48.5595 360.176 48.4733 360.236C48.3871 360.292 48.2897 360.32 48.1811 360.32H47.7315L48.2092 357.943H47.3887C47.2838 357.943 47.207 357.913 47.1583 357.853C47.1133 357.79 47.1021 357.681 47.1245 357.527L47.1695 357.207H48.3159L48.6812 355.375H47.3774L47.4505 354.959C47.4692 354.85 47.5123 354.77 47.5797 354.717C47.6509 354.665 47.7577 354.639 47.9001 354.639H48.788L49.1926 352.627C49.2151 352.514 49.2657 352.426 49.3444 352.363C49.4268 352.299 49.5242 352.267 49.6366 352.267H50.0862L49.6141 354.639H51.0022L51.4743 352.267H51.9183C52.0269 352.267 52.1112 352.303 52.1712 352.374C52.2349 352.445 52.2573 352.535 52.2386 352.644L51.8284 354.639H53.0198L52.9467 355.06C52.928 355.169 52.883 355.249 52.8118 355.302C52.7444 355.35 52.6395 355.375 52.4971 355.375H51.7216L51.3563 357.207H52.3622C52.4709 357.207 52.5477 357.239 52.5927 357.302C52.6414 357.362 52.6545 357.469 52.632 357.623L52.5814 357.943H51.2495ZM49.1421 357.207H50.5302L50.8955 355.375H49.5074L49.1421 357.207Z" fill="black"/>
<rect x="176.186" y="348.546" width="19.3703" height="19.3703" rx="6.32234" fill="#777777" fill-opacity="0.2"/>
<rect opacity="0.05" x="47.0299" y="326.594" width="104.89" height="10.7273" rx="2.16132" fill="black"/>
<rect x="61.3329" y="351.625" width="40.5255" height="10.7273" rx="2.16132" fill="#FF626D"/>
<rect opacity="0.05" x="47.0299" y="243.159" width="79.8591" height="10.7273" rx="2.16132" fill="black"/>
<rect opacity="0.05" x="47.0299" y="225.281" width="143.031" height="10.7273" rx="2.16132" fill="black"/>
<rect opacity="0.05" x="38.6865" y="83.4409" width="106.081" height="15.495" rx="2.16132" fill="black"/>
<rect opacity="0.05" x="38.6865" y="104.896" width="52.4448" height="10.7273" rx="2.16132" fill="#4C4C4C"/>
<rect opacity="0.5" x="93.5148" y="158.532" width="52.4448" height="10.7273" rx="2.16132" fill="white"/>
<rect x="61.3329" y="268.189" width="40.5255" height="10.7273" rx="2.16132" fill="#FF626D"/>
<g filter="url(#filter3_d_634_1625)">
<rect x="247.577" y="89.8271" width="197.577" height="122.42" rx="6.24598" fill="white"/>
</g>
<path d="M430.433 121.594C430.433 135.287 419.332 146.388 405.639 146.388C391.945 146.388 380.845 135.287 380.845 121.594C380.845 107.9 391.945 96.7998 405.639 96.7998C419.332 96.7998 430.433 107.9 430.433 121.594ZM387.043 121.594C387.043 131.864 395.369 140.189 405.639 140.189C415.909 140.189 424.234 131.864 424.234 121.594C424.234 111.324 415.909 102.998 405.639 102.998C395.369 102.998 387.043 111.324 387.043 121.594Z" fill="#E4E4E4"/>
<rect opacity="0.5" x="272.607" y="167.303" width="146.439" height="27.1184" rx="6.32234" fill="#FF4C58"/>
<g filter="url(#filter4_d_634_1625)">
<rect x="247.577" y="226.968" width="197.577" height="86.7788" rx="6.24598" fill="white"/>
</g>
<path d="M276.829 291.377L276.357 293.754H275.901C275.853 293.754 275.808 293.743 275.766 293.721C275.725 293.698 275.69 293.668 275.66 293.631C275.633 293.593 275.615 293.548 275.603 293.496C275.592 293.443 275.592 293.385 275.603 293.322L276.002 291.377H274.614L274.215 293.372C274.193 293.511 274.139 293.61 274.052 293.67C273.966 293.726 273.869 293.754 273.76 293.754H273.311L273.788 291.377H272.968C272.863 291.377 272.786 291.347 272.737 291.287C272.692 291.224 272.681 291.115 272.704 290.961L272.749 290.641H273.895L274.26 288.809H272.957L273.03 288.393C273.048 288.284 273.091 288.204 273.159 288.151C273.23 288.099 273.337 288.073 273.479 288.073H274.367L274.772 286.061C274.794 285.948 274.845 285.86 274.923 285.797C275.006 285.733 275.103 285.701 275.216 285.701H275.665L275.193 288.073H276.581L277.053 285.701H277.497C277.606 285.701 277.69 285.737 277.75 285.808C277.814 285.879 277.836 285.969 277.818 286.078L277.407 288.073H278.599L278.526 288.494C278.507 288.603 278.462 288.683 278.391 288.736C278.323 288.785 278.219 288.809 278.076 288.809H277.301L276.935 290.641H277.941C278.05 290.641 278.127 290.673 278.172 290.737C278.22 290.796 278.234 290.903 278.211 291.057L278.161 291.377H276.829ZM274.721 290.641H276.109L276.475 288.809H275.086L274.721 290.641Z" fill="black"/>
<rect x="401.763" y="280.43" width="19.3703" height="19.3703" rx="6.32234" fill="#777777" fill-opacity="0.2"/>
<g filter="url(#filter5_d_634_1625)">
<rect x="247.577" y="327.693" width="197.577" height="71.2826" rx="6.24598" fill="white"/>
</g>
<path d="M276.828 375.056L276.356 377.434H275.9C275.852 377.434 275.807 377.422 275.765 377.4C275.724 377.377 275.689 377.347 275.659 377.31C275.632 377.272 275.614 377.228 275.603 377.175C275.591 377.123 275.591 377.065 275.603 377.001L276.002 375.056H274.613L274.214 377.051C274.192 377.19 274.138 377.289 274.051 377.349C273.965 377.405 273.868 377.434 273.759 377.434H273.31L273.787 375.056H272.967C272.862 375.056 272.785 375.026 272.736 374.966C272.691 374.903 272.68 374.794 272.703 374.641L272.748 374.32H273.894L274.259 372.488H272.956L273.029 372.072C273.047 371.964 273.09 371.883 273.158 371.831C273.229 371.778 273.336 371.752 273.478 371.752H274.366L274.771 369.74C274.793 369.628 274.844 369.54 274.923 369.476C275.005 369.412 275.102 369.38 275.215 369.38H275.664L275.192 371.752H276.58L277.052 369.38H277.496C277.605 369.38 277.689 369.416 277.749 369.487C277.813 369.558 277.835 369.648 277.817 369.757L277.406 371.752H278.598L278.525 372.173C278.506 372.282 278.461 372.363 278.39 372.415C278.323 372.464 278.218 372.488 278.075 372.488H277.3L276.934 374.32H277.94C278.049 374.32 278.126 374.352 278.171 374.416C278.219 374.476 278.233 374.582 278.21 374.736L278.16 375.056H276.828ZM274.72 374.32H276.108L276.474 372.488H275.085L274.72 374.32Z" fill="black"/>
<rect x="401.763" y="365.66" width="19.3703" height="19.3703" rx="6.32234" fill="#777777" fill-opacity="0.2"/>
<rect opacity="0.05" x="272.609" y="343.708" width="104.89" height="10.7273" rx="2.16132" fill="black"/>
<rect x="286.912" y="368.738" width="40.5255" height="10.7273" rx="2.16132" fill="#FF626D"/>
<rect opacity="0.05" x="272.609" y="260.272" width="79.8591" height="10.7273" rx="2.16132" fill="black"/>
<rect opacity="0.05" x="272.609" y="242.394" width="143.031" height="10.7273" rx="2.16132" fill="black"/>
<rect opacity="0.05" x="264.266" y="100.554" width="106.081" height="15.495" rx="2.16132" fill="black"/>
<rect opacity="0.05" x="264.266" y="122.008" width="52.4448" height="10.7273" rx="2.16132" fill="#4C4C4C"/>
<rect opacity="0.5" x="319.094" y="175.645" width="52.4448" height="10.7273" rx="2.16132" fill="white"/>
<rect x="286.912" y="285.303" width="40.5255" height="10.7273" rx="2.16132" fill="#FF626D"/>
<g filter="url(#filter6_d_634_1625)">
<rect x="473.156" y="18" width="197.577" height="122.42" rx="6.24598" fill="white"/>
</g>
<path d="M656.011 49.7671C656.011 63.4604 644.91 74.561 631.217 74.561C617.524 74.561 606.423 63.4604 606.423 49.7671C606.423 36.0738 617.524 24.9731 631.217 24.9731C644.91 24.9731 656.011 36.0738 656.011 49.7671ZM612.621 49.7671C612.621 60.0371 620.947 68.3625 631.217 68.3625C641.487 68.3625 649.812 60.0371 649.812 49.7671C649.812 39.4971 641.487 31.1716 631.217 31.1716C620.947 31.1716 612.621 39.4971 612.621 49.7671Z" fill="#E4E4E4"/>
<rect opacity="0.5" x="498.185" y="95.4756" width="146.439" height="27.1184" rx="6.32234" fill="#FFA34C"/>
<g filter="url(#filter7_d_634_1625)">
<rect x="473.156" y="155.141" width="197.577" height="86.7788" rx="6.24598" fill="white"/>
</g>
<path d="M502.408 219.55L501.936 221.927H501.481C501.432 221.927 501.387 221.916 501.346 221.894C501.305 221.871 501.269 221.841 501.239 221.804C501.213 221.766 501.194 221.721 501.183 221.669C501.172 221.616 501.172 221.558 501.183 221.495L501.582 219.55H500.194L499.795 221.545C499.772 221.684 499.718 221.783 499.632 221.843C499.546 221.899 499.448 221.927 499.34 221.927H498.89L499.368 219.55H498.547C498.442 219.55 498.366 219.52 498.317 219.46C498.272 219.396 498.261 219.288 498.283 219.134L498.328 218.814H499.475L499.84 216.982H498.536L498.609 216.566C498.628 216.457 498.671 216.377 498.738 216.324C498.81 216.272 498.916 216.246 499.059 216.246H499.947L500.351 214.234C500.374 214.121 500.424 214.033 500.503 213.97C500.585 213.906 500.683 213.874 500.795 213.874H501.245L500.773 216.246H502.161L502.633 213.874H503.077C503.185 213.874 503.27 213.91 503.33 213.981C503.393 214.052 503.416 214.142 503.397 214.251L502.987 216.246H504.178L504.105 216.667C504.087 216.776 504.042 216.856 503.97 216.909C503.903 216.957 503.798 216.982 503.656 216.982H502.88L502.515 218.814H503.521C503.629 218.814 503.706 218.846 503.751 218.909C503.8 218.969 503.813 219.076 503.791 219.23L503.74 219.55H502.408ZM500.301 218.814H501.689L502.054 216.982H500.666L500.301 218.814Z" fill="black"/>
<rect x="627.344" y="208.603" width="19.3703" height="19.3703" rx="6.32234" fill="#777777" fill-opacity="0.2"/>
<g filter="url(#filter8_d_634_1625)">
<rect x="473.156" y="255.867" width="197.577" height="71.2826" rx="6.24598" fill="white"/>
</g>
<path d="M502.409 303.23L501.937 305.607H501.482C501.433 305.607 501.388 305.596 501.347 305.574C501.306 305.551 501.27 305.521 501.24 305.484C501.214 305.446 501.195 305.401 501.184 305.349C501.173 305.296 501.173 305.238 501.184 305.175L501.583 303.23H500.195L499.796 305.225C499.773 305.364 499.719 305.463 499.633 305.523C499.547 305.579 499.449 305.607 499.341 305.607H498.891L499.369 303.23H498.548C498.443 303.23 498.367 303.2 498.318 303.14C498.273 303.077 498.262 302.968 498.284 302.814L498.329 302.494H499.476L499.841 300.662H498.537L498.61 300.246C498.629 300.137 498.672 300.057 498.739 300.004C498.811 299.952 498.917 299.926 499.06 299.926H499.948L500.352 297.914C500.375 297.801 500.425 297.713 500.504 297.65C500.586 297.586 500.684 297.554 500.796 297.554H501.246L500.774 299.926H502.162L502.634 297.554H503.078C503.187 297.554 503.271 297.59 503.331 297.661C503.395 297.732 503.417 297.822 503.398 297.931L502.988 299.926H504.179L504.106 300.347C504.088 300.456 504.043 300.536 503.972 300.589C503.904 300.638 503.799 300.662 503.657 300.662H502.881L502.516 302.494H503.522C503.631 302.494 503.707 302.526 503.752 302.59C503.801 302.65 503.814 302.756 503.792 302.91L503.741 303.23H502.409ZM500.302 302.494H501.69L502.055 300.662H500.667L500.302 302.494Z" fill="black"/>
<rect x="627.344" y="293.833" width="19.3703" height="19.3703" rx="6.32234" fill="#777777" fill-opacity="0.2"/>
<rect opacity="0.05" x="498.188" y="271.88" width="104.89" height="10.7273" rx="2.16132" fill="black"/>
<rect x="512.49" y="296.911" width="40.5255" height="10.7273" rx="2.16132" fill="#FF626D"/>
<rect opacity="0.05" x="498.188" y="188.446" width="79.8591" height="10.7273" rx="2.16132" fill="black"/>
<rect opacity="0.05" x="498.188" y="170.567" width="143.031" height="10.7273" rx="2.16132" fill="black"/>
<rect opacity="0.05" x="489.845" y="28.7275" width="106.081" height="15.495" rx="2.16132" fill="black"/>
<rect opacity="0.05" x="489.845" y="50.6699" width="52.4448" height="10.7273" rx="2.16132" fill="#4C4C4C"/>
<rect opacity="0.5" x="544.673" y="103.818" width="52.4448" height="10.7273" rx="2.16132" fill="white"/>
<rect x="512.49" y="213.476" width="40.5255" height="10.7273" rx="2.16132" fill="#FF626D"/>
<g filter="url(#filter9_d_634_1625)">
<rect x="687.849" y="80.4927" width="257.88" height="159.785" rx="8.15236" fill="white"/>
</g>
<path d="M926.515 121.956C926.515 139.829 912.026 154.318 894.153 154.318C876.281 154.318 861.792 139.829 861.792 121.956C861.792 104.083 876.281 89.5947 894.153 89.5947C912.026 89.5947 926.515 104.083 926.515 121.956ZM869.882 121.956C869.882 135.361 880.749 146.227 894.153 146.227C907.558 146.227 918.424 135.361 918.424 121.956C918.424 108.552 907.558 97.6851 894.153 97.6851C880.749 97.6851 869.882 108.552 869.882 121.956Z" fill="#E4E4E4"/>
<rect opacity="0.5" x="720.519" y="181.615" width="191.135" height="35.3953" rx="8.25202" fill="#10DA46"/>
<g filter="url(#filter10_d_634_1625)">
<rect x="687.849" y="259.492" width="257.88" height="113.265" rx="8.15236" fill="white"/>
</g>
<path d="M726.028 344.202L725.412 347.305H724.818C724.754 347.305 724.695 347.29 724.641 347.261C724.588 347.231 724.541 347.192 724.502 347.143C724.468 347.094 724.443 347.036 724.429 346.967C724.414 346.899 724.414 346.823 724.429 346.74L724.95 344.202H723.138L722.617 346.806C722.588 346.987 722.517 347.116 722.404 347.195C722.292 347.268 722.165 347.305 722.023 347.305H721.436L722.06 344.202H720.989C720.852 344.202 720.751 344.163 720.688 344.085C720.629 344.001 720.614 343.86 720.644 343.659L720.703 343.241H722.199L722.676 340.85H720.974L721.069 340.307C721.094 340.165 721.15 340.06 721.238 339.992C721.331 339.923 721.47 339.889 721.656 339.889H722.815L723.343 337.263C723.373 337.116 723.439 337.001 723.541 336.918C723.649 336.835 723.776 336.793 723.923 336.793H724.509L723.893 339.889H725.705L726.321 336.793H726.901C727.043 336.793 727.153 336.84 727.231 336.933C727.314 337.026 727.343 337.143 727.319 337.285L726.783 339.889H728.338L728.243 340.439C728.219 340.581 728.16 340.686 728.067 340.754C727.979 340.818 727.842 340.85 727.656 340.85H726.644L726.167 343.241H727.48C727.622 343.241 727.722 343.283 727.781 343.366C727.844 343.444 727.862 343.583 727.832 343.784L727.766 344.202H726.028ZM723.277 343.241H725.089L725.566 340.85H723.754L723.277 343.241Z" fill="black"/>
<rect x="889.096" y="329.271" width="25.2824" height="25.2824" rx="8.25202" fill="#777777" fill-opacity="0.2"/>
<g filter="url(#filter11_d_634_1625)">
<rect x="687.087" y="390.961" width="257.88" height="93.0392" rx="8.15236" fill="white"/>
</g>
<path d="M726.025 453.423L725.409 456.525H724.815C724.752 456.525 724.693 456.511 724.639 456.481C724.585 456.452 724.539 456.413 724.5 456.364C724.466 456.315 724.441 456.256 724.426 456.188C724.412 456.12 724.412 456.044 724.426 455.961L724.947 453.423H723.135L722.615 456.027C722.585 456.208 722.514 456.337 722.402 456.415C722.289 456.489 722.162 456.525 722.021 456.525H721.434L722.057 453.423H720.986C720.849 453.423 720.749 453.384 720.686 453.305C720.627 453.222 720.612 453.08 720.642 452.88L720.7 452.462H722.197L722.673 450.07H720.972L721.067 449.528C721.091 449.386 721.148 449.281 721.236 449.212C721.329 449.144 721.468 449.11 721.654 449.11H722.813L723.341 446.484C723.37 446.337 723.436 446.222 723.539 446.139C723.646 446.056 723.774 446.014 723.92 446.014H724.507L723.891 449.11H725.703L726.319 446.014H726.898C727.04 446.014 727.15 446.061 727.228 446.154C727.312 446.246 727.341 446.364 727.316 446.506L726.781 449.11H728.336L728.241 449.66C728.216 449.802 728.158 449.907 728.065 449.975C727.977 450.039 727.84 450.07 727.654 450.07H726.642L726.165 452.462H727.478C727.62 452.462 727.72 452.503 727.779 452.586C727.842 452.665 727.859 452.804 727.83 453.005L727.764 453.423H726.025ZM723.275 452.462H725.087L725.563 450.07H723.752L723.275 452.462Z" fill="black"/>
<rect x="889.094" y="440.514" width="25.2824" height="25.2824" rx="8.25202" fill="#777777" fill-opacity="0.2"/>
<rect opacity="0.05" x="720.518" y="411.861" width="136.904" height="14.0015" rx="2.82099" fill="black"/>
<rect x="739.188" y="444.532" width="52.8946" height="14.0015" rx="2.82099" fill="#FF626D"/>
<rect opacity="0.05" x="720.518" y="302.96" width="104.233" height="14.0015" rx="2.82099" fill="black"/>
<rect opacity="0.05" x="720.518" y="279.624" width="186.687" height="14.0015" rx="2.82099" fill="black"/>
<rect opacity="0.05" x="709.629" y="94.4937" width="138.459" height="20.2244" rx="2.82099" fill="black"/>
<rect opacity="0.05" x="709.629" y="122.497" width="68.4518" height="14.0015" rx="2.82099" fill="#4C4C4C"/>
<rect opacity="0.5" x="781.192" y="192.504" width="68.4518" height="14.0015" rx="2.82099" fill="white"/>
<rect x="739.188" y="335.63" width="52.8946" height="14.0015" rx="2.82099" fill="#FF626D"/>
<defs>
<filter id="filter0_d_634_1625" x="0.386789" y="55.4228" width="240.803" height="165.646" filterUnits="userSpaceOnUse" color-interpolation-filters="sRGB">
<feFlood flood-opacity="0" result="BackgroundImageFix"/>
<feColorMatrix in="SourceAlpha" type="matrix" values="0 0 0 0 0 0 0 0 0 0 0 0 0 0 0 0 0 0 127 0" result="hardAlpha"/>
<feOffset dy="4.32264"/>
<feGaussianBlur stdDeviation="10.8066"/>
<feComposite in2="hardAlpha" operator="out"/>
<feColorMatrix type="matrix" values="0 0 0 0 0.541667 0 0 0 0 0.512326 0 0 0 0 0.512326 0 0 0 0.25 0"/>
<feBlend mode="normal" in2="BackgroundImageFix" result="effect1_dropShadow_634_1625"/>
<feBlend mode="normal" in="SourceGraphic" in2="effect1_dropShadow_634_1625" result="shape"/>
</filter>
<filter id="filter1_d_634_1625" x="0.386789" y="192.565" width="240.803" height="130.005" filterUnits="userSpaceOnUse" color-interpolation-filters="sRGB">
<feFlood flood-opacity="0" result="BackgroundImageFix"/>
<feColorMatrix in="SourceAlpha" type="matrix" values="0 0 0 0 0 0 0 0 0 0 0 0 0 0 0 0 0 0 127 0" result="hardAlpha"/>
<feOffset dy="4.32264"/>
<feGaussianBlur stdDeviation="10.8066"/>
<feComposite in2="hardAlpha" operator="out"/>
<feColorMatrix type="matrix" values="0 0 0 0 0.541667 0 0 0 0 0.512326 0 0 0 0 0.512326 0 0 0 0.25 0"/>
<feBlend mode="normal" in2="BackgroundImageFix" result="effect1_dropShadow_634_1625"/>
<feBlend mode="normal" in="SourceGraphic" in2="effect1_dropShadow_634_1625" result="shape"/>
</filter>
<filter id="filter2_d_634_1625" x="0.386789" y="293.29" width="240.803" height="114.509" filterUnits="userSpaceOnUse" color-interpolation-filters="sRGB">
<feFlood flood-opacity="0" result="BackgroundImageFix"/>
<feColorMatrix in="SourceAlpha" type="matrix" values="0 0 0 0 0 0 0 0 0 0 0 0 0 0 0 0 0 0 127 0" result="hardAlpha"/>
<feOffset dy="4.32264"/>
<feGaussianBlur stdDeviation="10.8066"/>
<feComposite in2="hardAlpha" operator="out"/>
<feColorMatrix type="matrix" values="0 0 0 0 0.541667 0 0 0 0 0.512326 0 0 0 0 0.512326 0 0 0 0.25 0"/>
<feBlend mode="normal" in2="BackgroundImageFix" result="effect1_dropShadow_634_1625"/>
<feBlend mode="normal" in="SourceGraphic" in2="effect1_dropShadow_634_1625" result="shape"/>
</filter>
<filter id="filter3_d_634_1625" x="225.964" y="72.5366" width="240.803" height="165.646" filterUnits="userSpaceOnUse" color-interpolation-filters="sRGB">
<feFlood flood-opacity="0" result="BackgroundImageFix"/>
<feColorMatrix in="SourceAlpha" type="matrix" values="0 0 0 0 0 0 0 0 0 0 0 0 0 0 0 0 0 0 127 0" result="hardAlpha"/>
<feOffset dy="4.32264"/>
<feGaussianBlur stdDeviation="10.8066"/>
<feComposite in2="hardAlpha" operator="out"/>
<feColorMatrix type="matrix" values="0 0 0 0 0.541667 0 0 0 0 0.512326 0 0 0 0 0.512326 0 0 0 0.25 0"/>
<feBlend mode="normal" in2="BackgroundImageFix" result="effect1_dropShadow_634_1625"/>
<feBlend mode="normal" in="SourceGraphic" in2="effect1_dropShadow_634_1625" result="shape"/>
</filter>
<filter id="filter4_d_634_1625" x="225.964" y="209.677" width="240.803" height="130.005" filterUnits="userSpaceOnUse" color-interpolation-filters="sRGB">
<feFlood flood-opacity="0" result="BackgroundImageFix"/>
<feColorMatrix in="SourceAlpha" type="matrix" values="0 0 0 0 0 0 0 0 0 0 0 0 0 0 0 0 0 0 127 0" result="hardAlpha"/>
<feOffset dy="4.32264"/>
<feGaussianBlur stdDeviation="10.8066"/>
<feComposite in2="hardAlpha" operator="out"/>
<feColorMatrix type="matrix" values="0 0 0 0 0.541667 0 0 0 0 0.512326 0 0 0 0 0.512326 0 0 0 0.25 0"/>
<feBlend mode="normal" in2="BackgroundImageFix" result="effect1_dropShadow_634_1625"/>
<feBlend mode="normal" in="SourceGraphic" in2="effect1_dropShadow_634_1625" result="shape"/>
</filter>
<filter id="filter5_d_634_1625" x="225.964" y="310.403" width="240.803" height="114.509" filterUnits="userSpaceOnUse" color-interpolation-filters="sRGB">
<feFlood flood-opacity="0" result="BackgroundImageFix"/>
<feColorMatrix in="SourceAlpha" type="matrix" values="0 0 0 0 0 0 0 0 0 0 0 0 0 0 0 0 0 0 127 0" result="hardAlpha"/>
<feOffset dy="4.32264"/>
<feGaussianBlur stdDeviation="10.8066"/>
<feComposite in2="hardAlpha" operator="out"/>
<feColorMatrix type="matrix" values="0 0 0 0 0.541667 0 0 0 0 0.512326 0 0 0 0 0.512326 0 0 0 0.25 0"/>
<feBlend mode="normal" in2="BackgroundImageFix" result="effect1_dropShadow_634_1625"/>
<feBlend mode="normal" in="SourceGraphic" in2="effect1_dropShadow_634_1625" result="shape"/>
</filter>
<filter id="filter6_d_634_1625" x="451.543" y="0.709432" width="240.803" height="165.646" filterUnits="userSpaceOnUse" color-interpolation-filters="sRGB">
<feFlood flood-opacity="0" result="BackgroundImageFix"/>
<feColorMatrix in="SourceAlpha" type="matrix" values="0 0 0 0 0 0 0 0 0 0 0 0 0 0 0 0 0 0 127 0" result="hardAlpha"/>
<feOffset dy="4.32264"/>
<feGaussianBlur stdDeviation="10.8066"/>
<feComposite in2="hardAlpha" operator="out"/>
<feColorMatrix type="matrix" values="0 0 0 0 0.541667 0 0 0 0 0.512326 0 0 0 0 0.512326 0 0 0 0.25 0"/>
<feBlend mode="normal" in2="BackgroundImageFix" result="effect1_dropShadow_634_1625"/>
<feBlend mode="normal" in="SourceGraphic" in2="effect1_dropShadow_634_1625" result="shape"/>
</filter>
<filter id="filter7_d_634_1625" x="451.543" y="137.85" width="240.803" height="130.005" filterUnits="userSpaceOnUse" color-interpolation-filters="sRGB">
<feFlood flood-opacity="0" result="BackgroundImageFix"/>
<feColorMatrix in="SourceAlpha" type="matrix" values="0 0 0 0 0 0 0 0 0 0 0 0 0 0 0 0 0 0 127 0" result="hardAlpha"/>
<feOffset dy="4.32264"/>
<feGaussianBlur stdDeviation="10.8066"/>
<feComposite in2="hardAlpha" operator="out"/>
<feColorMatrix type="matrix" values="0 0 0 0 0.541667 0 0 0 0 0.512326 0 0 0 0 0.512326 0 0 0 0.25 0"/>
<feBlend mode="normal" in2="BackgroundImageFix" result="effect1_dropShadow_634_1625"/>
<feBlend mode="normal" in="SourceGraphic" in2="effect1_dropShadow_634_1625" result="shape"/>
</filter>
<filter id="filter8_d_634_1625" x="451.543" y="238.577" width="240.803" height="114.509" filterUnits="userSpaceOnUse" color-interpolation-filters="sRGB">
<feFlood flood-opacity="0" result="BackgroundImageFix"/>
<feColorMatrix in="SourceAlpha" type="matrix" values="0 0 0 0 0 0 0 0 0 0 0 0 0 0 0 0 0 0 127 0" result="hardAlpha"/>
<feOffset dy="4.32264"/>
<feGaussianBlur stdDeviation="10.8066"/>
<feComposite in2="hardAlpha" operator="out"/>
<feColorMatrix type="matrix" values="0 0 0 0 0.541667 0 0 0 0 0.512326 0 0 0 0 0.512326 0 0 0 0.25 0"/>
<feBlend mode="normal" in2="BackgroundImageFix" result="effect1_dropShadow_634_1625"/>
<feBlend mode="normal" in="SourceGraphic" in2="effect1_dropShadow_634_1625" result="shape"/>
</filter>
<filter id="filter9_d_634_1625" x="659.639" y="57.9247" width="314.3" height="216.205" filterUnits="userSpaceOnUse" color-interpolation-filters="sRGB">
<feFlood flood-opacity="0" result="BackgroundImageFix"/>
<feColorMatrix in="SourceAlpha" type="matrix" values="0 0 0 0 0 0 0 0 0 0 0 0 0 0 0 0 0 0 127 0" result="hardAlpha"/>
<feOffset dy="5.64198"/>
<feGaussianBlur stdDeviation="14.105"/>
<feComposite in2="hardAlpha" operator="out"/>
<feColorMatrix type="matrix" values="0 0 0 0 0.541667 0 0 0 0 0.512326 0 0 0 0 0.512326 0 0 0 0.25 0"/>
<feBlend mode="normal" in2="BackgroundImageFix" result="effect1_dropShadow_634_1625"/>
<feBlend mode="normal" in="SourceGraphic" in2="effect1_dropShadow_634_1625" result="shape"/>
</filter>
<filter id="filter10_d_634_1625" x="659.639" y="236.924" width="314.3" height="169.685" filterUnits="userSpaceOnUse" color-interpolation-filters="sRGB">
<feFlood flood-opacity="0" result="BackgroundImageFix"/>
<feColorMatrix in="SourceAlpha" type="matrix" values="0 0 0 0 0 0 0 0 0 0 0 0 0 0 0 0 0 0 127 0" result="hardAlpha"/>
<feOffset dy="5.64198"/>
<feGaussianBlur stdDeviation="14.105"/>
<feComposite in2="hardAlpha" operator="out"/>
<feColorMatrix type="matrix" values="0 0 0 0 0.541667 0 0 0 0 0.512326 0 0 0 0 0.512326 0 0 0 0.25 0"/>
<feBlend mode="normal" in2="BackgroundImageFix" result="effect1_dropShadow_634_1625"/>
<feBlend mode="normal" in="SourceGraphic" in2="effect1_dropShadow_634_1625" result="shape"/>
</filter>
<filter id="filter11_d_634_1625" x="658.877" y="368.393" width="314.3" height="149.459" filterUnits="userSpaceOnUse" color-interpolation-filters="sRGB">
<feFlood flood-opacity="0" result="BackgroundImageFix"/>
<feColorMatrix in="SourceAlpha" type="matrix" values="0 0 0 0 0 0 0 0 0 0 0 0 0 0 0 0 0 0 127 0" result="hardAlpha"/>
<feOffset dy="5.64198"/>
<feGaussianBlur stdDeviation="14.105"/>
<feComposite in2="hardAlpha" operator="out"/>
<feColorMatrix type="matrix" values="0 0 0 0 0.541667 0 0 0 0 0.512326 0 0 0 0 0.512326 0 0 0 0.25 0"/>
<feBlend mode="normal" in2="BackgroundImageFix" result="effect1_dropShadow_634_1625"/>
<feBlend mode="normal" in="SourceGraphic" in2="effect1_dropShadow_634_1625" result="shape"/>
</filter>
</defs>
</svg>
