<svg width="94" height="31" viewBox="0 0 94 31" fill="none" xmlns="http://www.w3.org/2000/svg">
<path d="M39.8315 16.5709C39.8315 21.1573 36.4336 24.537 32.2636 24.537C28.0937 24.537 24.6958 21.1573 24.6958 16.5709C24.6958 11.9521 28.0937 8.60474 32.2636 8.60474C36.4336 8.60474 39.8315 11.9521 39.8315 16.5709ZM36.5186 16.5709C36.5186 13.7048 34.5493 11.7438 32.2636 11.7438C29.978 11.7438 28.0086 13.7048 28.0086 16.5709C28.0086 19.4082 29.978 21.398 32.2636 21.398C34.5493 21.398 36.5186 19.4046 36.5186 16.5709Z" fill="#EA4335"/>
<path d="M57.3561 16.5709C57.3561 21.1573 53.7794 24.537 49.39 24.537C45.0005 24.537 41.4238 21.1573 41.4238 16.5709C41.4238 11.9557 45.0005 8.60474 49.39 8.60474C53.7794 8.60474 57.3561 11.9521 57.3561 16.5709ZM53.8689 16.5709C53.8689 13.7048 51.7959 11.7438 49.39 11.7438C46.984 11.7438 44.911 13.7048 44.911 16.5709C44.911 19.4082 46.984 21.398 49.39 21.398C51.7959 21.398 53.8689 19.4046 53.8689 16.5709Z" fill="#FBBC05"/>
<path d="M73.2902 9.07008V22.8984C73.2902 28.5867 69.8516 30.91 65.7865 30.91C61.9598 30.91 59.6567 28.4131 58.7882 26.3711L61.8068 25.1453C62.3443 26.3989 63.6613 27.8783 65.7829 27.8783C68.385 27.8783 69.9975 26.3121 69.9975 23.3638V22.256H69.8765C69.1005 23.1901 67.6054 24.0062 65.7188 24.0062C61.7712 24.0062 58.1545 20.6516 58.1545 16.335C58.1545 11.9872 61.7712 8.60474 65.7188 8.60474C67.6019 8.60474 69.0969 9.42082 69.8765 10.3272H69.9975V9.07355H73.2902V9.07008ZM70.2432 16.335C70.2432 13.6228 68.3886 11.6399 66.0285 11.6399C63.6364 11.6399 61.6323 13.6228 61.6323 16.335C61.6323 19.0194 63.6364 20.9745 66.0285 20.9745C68.3886 20.9745 70.2432 19.0194 70.2432 16.335Z" fill="#4285F4"/>
<path d="M78.0668 1.4353V23.7405H74.8804V1.4353H78.0668Z" fill="#34A853"/>
<path d="M91.2029 19.1963L93.8527 21.0065C92.9975 22.3031 90.9366 24.537 87.3755 24.537C82.9591 24.537 79.6609 21.0388 79.6609 16.5709C79.6609 11.8336 82.9872 8.60474 86.9934 8.60474C91.0277 8.60474 93.001 11.8946 93.6459 13.6725L94 14.5776L83.6076 18.988C84.4032 20.5863 85.6405 21.4016 87.3755 21.4016C89.1139 21.4016 90.3197 20.5252 91.2029 19.1963ZM83.0467 16.3302L89.9937 13.3744C89.6117 12.3795 88.462 11.6863 87.1091 11.6863C85.3741 11.6863 82.9591 13.2558 83.0467 16.3302Z" fill="#EA4335"/>
<path d="M12.0242 14.8429V11.578H22.94C23.0468 12.147 23.1018 12.8201 23.1018 13.5487C23.1018 15.9982 22.4374 19.0272 20.2963 21.1853C18.2136 23.3711 15.5527 24.5369 12.0277 24.5369C5.49404 24.5369 0 19.1729 0 12.5877C0 6.00239 5.49404 0.638428 12.0277 0.638428C15.6422 0.638428 18.2171 2.06789 20.1517 3.93106L17.866 6.23486C16.4787 4.92336 14.5991 3.9033 12.0242 3.9033C7.2531 3.9033 3.52156 7.77882 3.52156 12.5877C3.52156 17.3965 7.2531 21.272 12.0242 21.272C15.1189 21.272 16.8814 20.0195 18.0105 18.8815C18.9262 17.9586 19.5286 16.6401 19.7662 14.8394L12.0242 14.8429Z" fill="#4285F4"/>
</svg>
