<svg width="12" height="15" viewBox="0 0 12 15" fill="none" xmlns="http://www.w3.org/2000/svg">
<path d="M6 5.61422C7.47333 5.61422 8.66667 4.45135 8.66667 3.01562C8.66667 1.57988 7.47333 0.417007 6 0.417007C4.52667 0.417007 3.33333 1.57988 3.33333 3.01562C3.33333 4.45135 4.52667 5.61422 6 5.61422ZM6 1.71631C6.73333 1.71631 7.33333 2.301 7.33333 3.01562C7.33333 3.73023 6.73333 4.31492 6 4.31492C5.26667 4.31492 4.66667 3.73023 4.66667 3.01562C4.66667 2.301 5.26667 1.71631 6 1.71631ZM6 7.27084C4.42667 5.8416 2.32 4.96457 0 4.96457V12.1107C2.32 12.1107 4.42667 12.9878 6 14.417C7.57333 12.9943 9.68 12.1107 12 12.1107V4.96457C9.68 4.96457 7.57333 5.8416 6 7.27084Z" fill="#4C79FF"/>
</svg>
